Coordinates
version=1
nRows=14
nColumns=40
inDegrees=yes

Units are S.I. units (second, meters, Newtons, ...)
If the header above contains a line with 'inDegrees', this indicates whether rotational values are in degrees (yes) or radians (no).

endheader
time	pelvis_tilt	pelvis_list	pelvis_rotation	pelvis_tx	pelvis_ty	pelvis_tz	hip_flexion_r	hip_adduction_r	hip_rotation_r	knee_angle_r	knee_angle_r_beta	ankle_angle_r	subtalar_angle_r	mtp_angle_r	hip_flexion_l	hip_adduction_l	hip_rotation_l	knee_angle_l	knee_angle_l_beta	ankle_angle_l	subtalar_angle_l	mtp_angle_l	lumbar_extension	lumbar_bending	lumbar_rotation	arm_flex_r	arm_add_r	arm_rot_r	elbow_flex_r	pro_sup_r	wrist_flex_r	wrist_dev_r	arm_flex_l	arm_add_l	arm_rot_l	elbow_flex_l	pro_sup_l	wrist_flex_l	wrist_dev_l
      6.73500000	     18.71075640	      2.99592878	   -178.14107837	      0.37137430	      0.83278231	     -0.59303694	     44.92766312	    -13.44732954	    -13.90843713	     23.27166714	      0.40616721	     -4.55776123	      0.00000000	      0.00000000	     48.64817611	    -16.13745945	     -5.31095800	     27.00178211	      0.47127000	     -2.74029176	      0.00000000	      0.00000000	    -51.36476614	      1.42503602	      2.94426318	     50.77381053	    -25.04490387	     58.91426291	     27.69961125	     63.30910523	      0.00000000	      0.00000000	     55.74884913	     -7.30863734	     17.30032265	     15.99352173	     41.18519625	      0.00000000	      0.00000000
      6.74000000	     18.53947656	      3.14074155	   -177.94739320	      0.37105529	      0.83305551	     -0.59285634	     44.64783393	    -13.45406958	    -14.16516257	     23.25086932	      0.40580422	     -4.66816859	      0.00000000	      0.00000000	     48.54537918	    -16.07791584	     -4.89544701	     27.02319471	      0.47164372	     -2.79608528	      0.00000000	      0.00000000	    -51.23371122	      1.67134811	      2.88031507	     50.07917872	    -24.59833233	     56.77717452	     27.59703087	     62.05639131	      0.00000000	      0.00000000	     55.44432274	     -7.40496344	     17.28610047	     16.15031306	     41.26186290	      0.00000000	      0.00000000
      6.74500000	     18.26786614	      3.10191279	   -177.92545492	      0.37052756	      0.83350944	     -0.59302267	     44.35702812	    -13.48763459	    -14.19537948	     23.33759340	      0.40731784	     -4.57524346	      0.00000000	      0.00000000	     48.22104213	    -16.07911965	     -4.96270837	     27.05690304	      0.47223204	     -2.70461390	      0.00000000	      0.00000000	    -51.19913147	      1.62364711	      2.85206659	     49.44408276	    -24.36515270	     55.30534995	     27.64912916	     61.22317413	      0.00000000	      0.00000000	     55.28891133	     -7.37560809	     17.30565205	     16.04275858	     41.29524772	      0.00000000	      0.00000000
      6.75000000	     17.90780740	      2.84362771	   -178.16728637	      0.36986475	      0.83412969	     -0.59379263	     44.11670285	    -13.48918309	    -13.83033582	     23.54202817	      0.41088590	     -4.22302544	      0.00000000	      0.00000000	     47.63622277	    -16.17719862	     -5.60388243	     27.06732639	      0.47241397	     -2.50088693	      0.00000000	      0.00000000	    -51.26477601	      1.22080222	      2.82245074	     49.99672627	    -24.85811473	     58.50873305	     27.68636563	     63.59822226	      0.00000000	      0.00000000	     55.10105665	     -7.41629399	     17.14113561	     16.04046394	     41.22579005	      0.00000000	      0.00000000
      6.75500000	     17.69830260	      2.75747014	   -178.17722490	      0.36940656	      0.83451224	     -0.59409786	     43.93730708	    -13.52935912	    -13.75450195	     23.66292153	      0.41299589	     -4.15437068	      0.00000000	      0.00000000	     47.31670523	    -16.15128385	     -5.68872133	     27.02619818	      0.47169614	     -2.43425264	      0.00000000	      0.00000000	    -51.17033398	      1.08647020	      2.82248340	     48.99784555	    -24.46869957	     55.72146425	     27.80313962	     61.80376452	      0.00000000	      0.00000000	     55.02627384	     -7.33520538	     17.23816508	     15.75233822	     41.36042304	      0.00000000	      0.00000000
      6.76000000	     17.33507318	      2.71388978	   -178.15356058	      0.36874426	      0.83519617	     -0.59433531	     43.52309844	    -13.55028741	    -13.84173279	     23.72606023	      0.41409787	     -3.98462802	      0.00000000	      0.00000000	     46.84207161	    -16.15775563	     -5.81090023	     26.98397626	      0.47095923	     -2.38735125	      0.00000000	      0.00000000	    -51.23159405	      1.02518102	      2.85448850	     48.33478946	    -24.31510740	     54.22044532	     28.00345059	     60.73741691	      0.00000000	      0.00000000	     54.95108008	     -7.25140754	     17.32632461	     15.69117192	     41.48424882	      0.00000000	      0.00000000
      6.76500000	     17.12613303	      2.72792761	   -178.05826661	      0.36838896	      0.83560941	     -0.59441564	     43.25134069	    -13.56940796	    -13.88844061	     23.72372002	      0.41405703	     -3.85229070	      0.00000000	      0.00000000	     46.60393518	    -16.11427003	     -5.67622294	     26.96204531	      0.47057646	     -2.35163565	      0.00000000	      0.00000000	    -51.12872071	      1.14012526	      2.67178108	     49.21264074	    -24.73425220	     58.36957077	     27.74673930	     63.41289821	      0.00000000	      0.00000000	     54.48523152	     -7.59737158	     17.73099002	     16.10522783	     41.51815081	      0.00000000	      0.00000000
      6.77000000	     16.85394988	      2.67046881	   -178.07921424	      0.36786857	      0.83621076	     -0.59476085	     42.91696734	    -13.53979384	    -13.79031783	     23.68648403	      0.41340713	     -3.78792547	      0.00000000	      0.00000000	     46.19295979	    -16.13360336	     -5.82063924	     26.87550211	      0.46906600	     -2.35886432	      0.00000000	      0.00000000	    -51.10910237	      1.03001614	      2.69289827	     48.51869393	    -24.54363260	     56.68415524	     27.87994487	     62.64557528	      0.00000000	      0.00000000	     54.38792219	     -7.54192589	     17.72509962	     15.72475130	     41.61959335	      0.00000000	      0.00000000
      6.77500000	     16.72826405	      2.48509769	   -178.11209063	      0.36750502	      0.83662644	     -0.59517760	     42.82913435	    -13.62978605	    -13.55617932	     23.75278299	      0.41456427	     -3.80162586	      0.00000000	      0.00000000	     45.85321792	    -16.01738515	     -5.95628784	     26.66495287	      0.46539122	     -2.33328348	      0.00000000	      0.00000000	    -50.93008043	      0.81367029	      2.60425526	     47.77862095	    -24.24037536	     54.91626556	     27.91568585	     61.49770159	      0.00000000	      0.00000000	     54.25538453	     -7.52760407	     17.71145973	     15.77292320	     41.73616128	      0.00000000	      0.00000000
      6.78000000	     16.51335019	      2.61146895	   -177.97930845	      0.36706186	      0.83709656	     -0.59523670	     42.47927829	    -13.56508583	    -13.75657953	     23.68461218	      0.41337446	     -3.73064516	      0.00000000	      0.00000000	     45.65744090	    -16.05386561	     -5.77476182	     26.67512946	      0.46556884	     -2.26240415	      0.00000000	      0.00000000	    -50.82520333	      1.02178521	      2.54334147	     48.40753744	    -24.64149597	     58.19923983	     27.80401791	     63.87246016	      0.00000000	      0.00000000	     53.84063641	     -7.76411066	     17.97453191	     16.09819883	     41.82877129	      0.00000000	      0.00000000
      6.78500000	     16.37257202	      2.50696772	   -178.00528161	      0.36667017	      0.83756933	     -0.59560738	     42.29653791	    -13.56434287	    -13.55304254	     23.62457227	      0.41232657	     -3.70024081	      0.00000000	      0.00000000	     45.35073269	    -16.01115042	     -5.88639855	     26.51767460	      0.46282073	     -2.30645640	      0.00000000	      0.00000000	    -50.66273715	      0.88551738	      2.52430791	     47.49463688	    -24.28600973	     55.74655856	     27.93678256	     62.14906638	      0.00000000	      0.00000000	     53.77386041	     -7.69487969	     17.98900442	     15.80336121	     41.90143899	      0.00000000	      0.00000000
      6.79000000	     16.13494730	      2.52849254	   -177.93339566	      0.36618834	      0.83818983	     -0.59577336	     41.95092541	    -13.54716290	    -13.64757277	     23.55697062	      0.41114670	     -3.63922817	      0.00000000	      0.00000000	     45.02665820	    -16.01043483	     -5.87343943	     26.42129588	      0.46113861	     -2.35758905	      0.00000000	      0.00000000	    -50.59958378	      0.96660432	      2.43962643	     47.80317463	    -24.50601058	     57.67557195	     27.84464471	     64.05312675	      0.00000000	      0.00000000	     53.42241044	     -7.86419548	     17.98444798	     16.05542816	     41.99241693	      0.00000000	      0.00000000
      6.79500000	     16.02255289	      2.46536243	   -177.95392528	      0.36574537	      0.83859338	     -0.59625522	     41.79312341	    -13.51365218	    -13.47165774	     23.51580593	      0.41042824	     -3.59422885	      0.00000000	      0.00000000	     44.75928054	    -16.00234024	     -5.95884211	     26.25692204	      0.45826974	     -2.39437189	      0.00000000	      0.00000000	    -50.39291149	      0.86522438	      2.39742353	     47.33075442	    -24.34135272	     56.98461095	     27.85410146	     63.41432941	      0.00000000	      0.00000000	     53.12159649	     -8.00268654	     18.18532024	     16.19763965	     42.09185454	      0.00000000	      0.00000000
      6.80000000	     15.92720906	      2.49281023	   -177.86852086	      0.36540350	      0.83898187	     -0.59637136	     41.61938963	    -13.49835374	    -13.49523799	     23.47065305	      0.40964017	     -3.53739817	      0.00000000	      0.00000000	     44.59486535	    -15.95940543	     -5.82647682	     26.13230272	      0.45609472	     -2.43837039	      0.00000000	      0.00000000	    -50.15983104	      0.92340298	      2.42050414	     46.68283339	    -24.22246487	     55.63404975	     28.05663259	     62.46594086	      0.00000000	      0.00000000	     53.08128656	     -7.85650006	     18.21320223	     15.77249329	     42.09992419	      0.00000000	      0.00000000
